<svg width="32" height="32" viewBox="0 0 32 32" fill="none" xmlns="http://www.w3.org/2000/svg">
    <rect width="32" height="32" rx="16" fill="#1C2D22"/>
    <path d="M7.78937 14.5556C7.78937 11.6384 7.78937 10.1799 8.13377 9.68918C8.47817 9.19849 9.84959 8.72905 12.5924 7.79016L13.115 7.61129C14.5448 7.12187 15.2597 6.87716 15.9999 6.87716C16.7401 6.87716 17.455 7.12187 18.8848 7.61129L19.4074 7.79016C22.1502 8.72905 23.5216 9.19849 23.866 9.68918C24.2104 10.1799 24.2104 11.6384 24.2104 14.5556V15.9921C24.2104 21.1356 20.3433 23.6316 17.917 24.6915C17.2588 24.979 16.9298 25.1228 15.9999 25.1228C15.07 25.1228 14.7409 24.979 14.0828 24.6915C11.6565 23.6316 7.78937 21.1356 7.78937 15.9921V14.5556Z" fill="#54BE7B"/>
    <path d="M17.3683 18.7368C17.3683 19.2407 16.9599 19.6491 16.456 19.6491H15.5438C15.0399 19.6491 14.6315 19.2407 14.6315 18.7368V17.4584C13.8134 16.9851 13.2631 16.1007 13.2631 15.0877C13.2631 13.5762 14.4883 12.3508 15.9999 12.3508C17.5115 12.3508 18.7367 13.5762 18.7367 15.0877C18.7367 16.1007 18.1864 16.9851 17.3683 17.4584V18.7368Z" fill="white"/>
</svg>
